<?xml version="1.0" encoding="UTF-8" standalone="no"?>
<svg width="690px" height="100px" viewBox="0 0 690 100" version="1.1" xmlns="http://www.w3.org/2000/svg" xmlns:xlink="http://www.w3.org/1999/xlink">
    <!-- Generator: Sketch 3.8.3 (29802) - http://www.bohemiancoding.com/sketch -->
    <title>Group 13</title>
    <desc>Created with Sketch.</desc>
    <defs></defs>
    <g id="需求单" stroke="none" stroke-width="1" fill="none" fill-rule="evenodd">
        <g id="企业端-填写需求单-投融资法务套餐" transform="translate(-375.000000, -279.000000)">
            <g id="Group-13" transform="translate(375.000000, 280.400000)">
                <text id="投融资法务套餐" font-family="PingFangSC-Regular, PingFang SC" font-size="15" font-weight="normal" fill="#212121">
                    <tspan x="0.5" y="96">投融资法务套餐</tspan>
                </text>
                <text id="多位律师报价" font-family="PingFangSC-Regular, PingFang SC" font-size="15" font-weight="normal" fill="#212121">
                    <tspan x="247.5" y="96">多位律师报价</tspan>
                </text>
                <text id="律师与您沟通" font-family="PingFangSC-Regular, PingFang SC" font-size="15" font-weight="normal" fill="#212121">
                    <tspan x="485" y="96">律师与您沟通</tspan>
                </text>
                <text id="律师完成工作" font-family="PingFangSC-Regular, PingFang SC" font-size="15" font-weight="normal" fill="#212121">
                    <tspan x="600" y="96">律师完成工作</tspan>
                </text>
                <text id="挑选律师并付款" font-family="PingFangSC-Regular, PingFang SC" font-size="15" font-weight="normal" fill="#212121">
                    <tspan x="358.5" y="96">挑选律师并付款</tspan>
                </text>
                <text id="1分钟填写需求" font-family="PingFangSC-Regular, PingFang SC" font-size="15" font-weight="normal" fill="#6EB58E">
                    <tspan x="124.4925" y="96">1分钟填写需求</tspan>
                </text>
                <g id="Group-12" transform="translate(48.000000, 59.000000)">
                    <circle id="Oval-6" stroke="#6EB58E" stroke-width="2" cx="5" cy="5" r="5"></circle>
                    <g id="Group-7" transform="translate(12.000000, 1.000000)">
                        <path d="M-5.55111512e-17,4 L100,4" id="Line" stroke="#6EB58E" stroke-width="2" stroke-linecap="square"></path>
                        <polygon id="Triangle-1" fill="#6EB58E" transform="translate(105.000000, 4.000000) rotate(90.000000) translate(-105.000000, -4.000000) " points="105 0 108.5 8 101.5 8"></polygon>
                    </g>
                </g>
                <g id="Group-8" transform="translate(179.000000, 60.000000)">
                    <polygon id="Triangle-1" fill="#6EB58E" transform="translate(105.000000, 4.000000) rotate(90.000000) translate(-105.000000, -4.000000) " points="105 0 108.5 8 101.5 8"></polygon>
                    <path d="M-5.55111512e-17,4 L100,4" id="Line" stroke="#6EB58E" stroke-width="2" stroke-linecap="square"></path>
                </g>
                <g id="Group-9" transform="translate(298.000000, 60.000000)">
                    <polygon id="Triangle-1" fill="#6EB58E" transform="translate(105.000000, 4.000000) rotate(90.000000) translate(-105.000000, -4.000000) " points="105 0 108.5 8 101.5 8"></polygon>
                    <path d="M-5.55111512e-17,4 L100,4" id="Line" stroke="#6EB58E" stroke-width="2" stroke-linecap="square"></path>
                </g>
                <g id="Group-10" transform="translate(417.000000, 60.000000)">
                    <polygon id="Triangle-1" fill="#6EB58E" transform="translate(105.000000, 4.000000) rotate(90.000000) translate(-105.000000, -4.000000) " points="105 0 108.5 8 101.5 8"></polygon>
                    <path d="M-5.55111512e-17,4 L100,4" id="Line" stroke="#6EB58E" stroke-width="2" stroke-linecap="square"></path>
                </g>
                <g id="Group-10" transform="translate(536.000000, 60.000000)">
                    <polygon id="Triangle-1" fill="#6EB58E" transform="translate(105.000000, 4.000000) rotate(90.000000) translate(-105.000000, -4.000000) " points="105 0 108.5 8 101.5 8"></polygon>
                    <path d="M-5.55111512e-17,4 L100,4" id="Line" stroke="#6EB58E" stroke-width="2" stroke-linecap="square"></path>
                </g>
                <g id="Group-2" transform="translate(33.000000, 0.000000)">
                    <text id="1" font-family="PingFangSC-Regular, PingFang SC" font-size="18" font-weight="normal" fill="#212121">
                        <tspan x="15.782" y="28">1</tspan>
                    </text>
                    <path d="M20,47.4894104 C20,47.4894104 40,31.045695 40,20 C40,8.954305 31.045695,0 20,0 C8.954305,0 0,8.954305 0,20 C0,31.045695 20,47.4894104 20,47.4894104 Z" id="Oval-1" stroke="#6EB58E" stroke-width="2"></path>
                </g>
                <g id="Group-4" transform="translate(272.000000, 0.000000)">
                    <text id="3" font-family="PingFangSC-Regular, PingFang SC" font-size="18" font-weight="normal" fill="#212121">
                        <tspan x="14.2" y="28">3</tspan>
                    </text>
                    <path d="M20,47.4894104 C20,47.4894104 40,31.045695 40,20 C40,8.954305 31.045695,0 20,0 C8.954305,0 0,8.954305 0,20 C0,31.045695 20,47.4894104 20,47.4894104 Z" id="Oval-1" stroke="#6EB58E" stroke-width="2"></path>
                </g>
                <g id="Group-5" transform="translate(391.000000, 0.000000)">
                    <text id="4" font-family="PingFangSC-Regular, PingFang SC" font-size="18" font-weight="normal" fill="#212121">
                        <tspan x="14.2" y="28">4</tspan>
                    </text>
                    <path d="M20,47.4894104 C20,47.4894104 40,31.045695 40,20 C40,8.954305 31.045695,0 20,0 C8.954305,0 0,8.954305 0,20 C0,31.045695 20,47.4894104 20,47.4894104 Z" id="Oval-1" stroke="#6EB58E" stroke-width="2"></path>
                </g>
                <g id="Group-6" transform="translate(510.000000, 0.000000)">
                    <path d="M20,47.4894104 C20,47.4894104 40,31.045695 40,20 C40,8.954305 31.045695,0 20,0 C8.954305,0 0,8.954305 0,20 C0,31.045695 20,47.4894104 20,47.4894104 Z" id="Oval-1" stroke="#6EB58E" stroke-width="2"></path>
                    <text id="5" font-family="PingFangSC-Regular, PingFang SC" font-size="18" font-weight="normal" fill="#212121">
                        <tspan x="14.2" y="28">5</tspan>
                    </text>
                </g>
                <g id="Group-6" transform="translate(625.000000, 0.000000)">
                    <path d="M20,47.4894104 C20,47.4894104 40,31.045695 40,20 C40,8.954305 31.045695,0 20,0 C8.954305,0 0,8.954305 0,20 C0,31.045695 20,47.4894104 20,47.4894104 Z" id="Oval-1" stroke="#6EB58E" stroke-width="2"></path>
                    <text id="6" font-family="PingFangSC-Regular, PingFang SC" font-size="18" font-weight="normal" fill="#212121">
                        <tspan x="14.2" y="28">6</tspan>
                    </text>
                </g>
                <g id="Group-3" transform="translate(152.000000, 0.000000)">
                    <path d="M20,47.4894104 C20,47.4894104 40,31.045695 40,20 C40,8.954305 31.045695,0 20,0 C8.954305,0 0,8.954305 0,20 C0,31.045695 20,47.4894104 20,47.4894104 Z" id="Oval-1" stroke="#6EB58E" stroke-width="2" fill="#6EB58E"></path>
                    <text id="2" font-family="PingFangSC-Regular, PingFang SC" font-size="18" font-weight="normal" fill="#FFFFFF">
                        <tspan x="15.2" y="28">2</tspan>
                    </text>
                </g>
            </g>
        </g>
    </g>
</svg>